<?xml version="1.0" encoding="UTF-8"?>
<svg width="24px" height="24px" viewBox="0 0 24 24" version="1.1" xmlns="http://www.w3.org/2000/svg" xmlns:xlink="http://www.w3.org/1999/xlink">
    <!-- Generator: Sketch 51.3 (57544) - http://www.bohemiancoding.com/sketch -->
    <title>Icon/Close</title>
    <desc>Created with Sketch.</desc>
    <defs>
        <path d="M12,10.9333333 L18.9333333,4 L20,5.06666667 L13.0666667,12 L20,18.9333333 L18.9333333,20 L12,13.0666667 L5.06666667,20 L4,18.9333333 L10.9333333,12 L4,5.06666667 L5.06666667,4 L12,10.9333333 Z" id="path-1"></path>
    </defs>
    <g id="Icon/Close" stroke="none" stroke-width="1" fill="none" fill-rule="evenodd">
        <mask id="mask-2" fill="white">
            <use xlink:href="#path-1"></use>
        </mask>
        <path id="Combined-Shape" d="M12.5333333,11.4666667 L19.4666667,4.53333333 L18.4,4.53333333 L19.4666667,5.6 L19.4666667,4.53333333 L12.5333333,11.4666667 L12,12 L12.5333333,12.5333333 L19.4666667,19.4666667 L19.4666667,18.4 L18.4,19.4666667 L19.4666667,19.4666667 L12.5333333,12.5333333 L12,12 L11.4666667,12.5333333 L4.53333333,19.4666667 L5.6,19.4666667 L4.53333333,18.4 L4.53333333,19.4666667 L11.4666667,12.5333333 L12,12 L11.4666667,11.4666667 L4.53333333,4.53333333 L4.53333333,5.6 L5.6,4.53333333 L4.53333333,4.53333333 L11.4666667,11.4666667 L12,12 L12.5333333,11.4666667 Z M11.4666667,10.4 L12.5333333,10.4 L5.6,3.46666667 L5.06666667,2.93333333 L4.53333333,3.46666667 L3.46666667,4.53333333 L2.93333333,5.06666667 L3.46666667,5.6 L10.4,12.5333333 L10.4,11.4666667 L3.46666667,18.4 L2.93333333,18.9333333 L3.46666667,19.4666667 L4.53333333,20.5333333 L5.06666667,21.0666667 L5.6,20.5333333 L12.5333333,13.6 L11.4666667,13.6 L18.4,20.5333333 L18.9333333,21.0666667 L19.4666667,20.5333333 L20.5333333,19.4666667 L21.0666667,18.9333333 L20.5333333,18.4 L13.6,11.4666667 L13.6,12.5333333 L20.5333333,5.6 L21.0666667,5.06666667 L20.5333333,4.53333333 L19.4666667,3.46666667 L18.9333333,2.93333333 L18.4,3.46666667 L11.4666667,10.4 Z" fill="#979797" fill-rule="nonzero"></path>
        <g id="Mixin/Fill/Black" mask="url(#mask-2)" fill="#354052">
            <rect id="Rectangle" x="0" y="0" width="24" height="24"></rect>
        </g>
    </g>
</svg>