<svg xmlns="http://www.w3.org/2000/svg" xmlns:xlink="http://www.w3.org/1999/xlink" width="24" height="24" viewBox="0 0 24 24">
    <defs>
        <path id="a" d="M18.33 5.356l-.803.803-2.438-.961-3.12 2.733L9.372 5.2 5.485 6.562l-.447 5.171 3.49 3.425-.724.724L4 12.15l.55-6.366L9.641 4l2.39 2.512 2.865-2.51 3.434 1.354zm1.222 1.607L20 12.15 12 20l-2.769-2.717.724-.724L12 18.565l6.962-6.832-.332-3.848.922-.922zm.266-2.388l.707.707L6.382 19.425l-.707-.707L19.818 4.575z"/>
    </defs>
    <g fill="none" fill-rule="evenodd">
        <mask id="b" fill="#fff">
            <use xlink:href="#a"/>
        </mask>
        <use fill="#E77718" fill-rule="nonzero" xlink:href="#a"/>
        <g fill="#E77718" mask="url(#b)">
            <path d="M0 0h24v24H0z"/>
        </g>
    </g>
</svg>
