<svg xmlns="http://www.w3.org/2000/svg" xmlns:xlink="http://www.w3.org/1999/xlink" width="55" height="55" viewBox="0 0 55 55">
    <defs>
        <path id="a" d="M27.5 0h.5c14.912 0 27 12.088 27 27v.5C55 42.688 42.688 55 27.5 55S0 42.688 0 27.5 12.312 0 27.5 0z"/>
    </defs>
    <g fill="none" fill-rule="evenodd">
        <path fill="#E84522" d="M27.5 0h.5c14.912 0 27 12.088 27 27v.5C55 42.688 42.688 55 27.5 55S0 42.688 0 27.5 12.312 0 27.5 0z" opacity=".503"/>
        <mask id="b" fill="#fff">
            <use xlink:href="#a"/>
        </mask>
        <use fill="#FD7A58" opacity=".2" xlink:href="#a"/>
        <path fill="#FD7A58" fill-opacity=".77" d="M43.668 27.46l12.592 8.268-8.753 17.131-17.934 3.643L20 42V14z" mask="url(#b)"/>
        <path stroke="#FFF" stroke-linejoin="bevel" stroke-width="2" d="M44 28L20 42V14z" mask="url(#b)"/>
    </g>
</svg>
