<?xml version="1.0" encoding="UTF-8"?>
<svg width="48px" height="48px" viewBox="0 0 48 48" version="1.1" xmlns="http://www.w3.org/2000/svg" xmlns:xlink="http://www.w3.org/1999/xlink">
    <!-- Generator: Sketch 51.3 (57544) - http://www.bohemiancoding.com/sketch -->
    <title>工具 (1)</title>
    <desc>Created with Sketch.</desc>
    <defs></defs>
    <g id="01预警展示" stroke="none" stroke-width="1" fill="none" fill-rule="evenodd">
        <g id="01-4-1查看预警内容-明细_参照物对比" transform="translate(-1596.000000, -864.000000)" fill="#30AAB6" fill-rule="nonzero">
            <g id="预警图表_参照物" transform="translate(1344.000000, 128.000000)">
                <g id="Group" transform="translate(229.000000, 736.000000)">
                    <g id="工具-(1)" transform="translate(23.000000, 0.000000)">
                        <path d="M45.7446109,34.8314377 L34.956058,24.0443707 C35.6507962,22.1048773 36.0024294,20.0775777 36.0024294,17.9999381 C36.0024294,8.0750332 27.9277409,0 18.0012972,0 C15.5301814,0 13.12597,0.498063536 10.857438,1.47988632 L9.78421675,1.94444489 C9.78251116,1.94615037 9.79092918,1.94697564 9.78757299,1.94862612 C9.68551079,1.99307936 9.58999594,2.0575036 9.50631048,2.14118357 C9.15132105,2.49686466 9.15132105,3.07530715 9.50807113,3.43192352 C9.51307796,3.43698502 9.50300929,3.43946077 9.50631048,3.44446727 L19.5850496,13.5225929 L13.5226646,19.5836404 L3.64645427,9.70731501 C3.63137877,9.70902049 3.61630327,9.70984576 3.59622094,9.68976476 C3.17768338,9.27125496 2.49961617,9.27125496 2.08096855,9.68976476 C1.96718708,9.80447395 1.8833915,9.93761365 1.83150762,10.0798861 C1.82650079,10.0932551 1.81978836,10.0865981 1.81313094,10.0874233 L1.47992949,10.857488 C0.498921846,13.1233938 0,15.5273907 0,18.0000482 C0,27.9241278 8.07474361,35.9999863 18.0011322,35.9999863 C20.0771489,35.9999863 22.1045831,35.6484314 24.046626,34.9536842 L34.8352339,45.740036 C36.2918899,47.1964304 38.2289811,48 40.2899224,48 C40.2899224,48 40.2899224,48 40.2916831,48 C42.3509187,48 44.2897155,47.1964304 45.7463165,45.740036 C48.751512,42.7332793 48.751512,37.8399 45.7446109,34.8314377 Z M43.9166635,43.9127319 C43.1011257,44.7283116 42.017563,45.1764706 40.8666619,45.1764706 L40.8648899,45.1764706 C39.7123274,45.1764706 38.6288201,44.7282562 37.8149437,43.9127319 L25.3269215,31.4265222 L24.2502256,31.8916264 C22.4016845,32.6919775 20.4436075,33.0979954 18.4315933,33.0979954 C10.3449387,33.0979954 3.76470588,26.5196434 3.76470588,18.431406 C3.76470588,17.307492 3.89107631,16.2011877 4.14215582,15.1227376 L13.2651365,24.247284 C13.6476811,24.5523511 14.17332,24.5565043 14.5626206,24.266721 L24.1540911,14.6754646 C24.1574691,14.6720867 24.1506577,14.6678228 24.1540911,14.6645002 C24.5449976,14.2735447 24.556793,13.6635212 24.2214295,13.2397277 L15.1220395,4.14126355 C16.2022242,3.89107422 17.3076054,3.76470588 18.4315379,3.76470588 C26.5181925,3.76470588 33.0984807,10.3440546 33.0984807,18.4313506 C33.0984807,20.4458788 32.69229,22.402982 31.891981,24.2482254 L31.4268691,25.3248481 L43.9149467,37.812719 C45.5966923,39.4945474 45.5966923,42.2309589 43.9166635,43.9127319 Z" id="Shape"></path>
                    </g>
                </g>
            </g>
        </g>
    </g>
</svg>